PathFileType	4	(X/Y/Z)	/Users/niels/Desktop/University/Third Semester/Perception and Action/Exam/Gymnastics Motion Tracking/Code for Gym Tracking/Analyzed Data/Webcam_Backflip/id20_1_baseline_Sports2D/id20_1_baseline_Sports2D_px_person00.trc
DataRate	CameraRate	NumFrames	NumMarkers	Units	OrigDataRate	OrigDataStartFrame	OrigNumFrames
29.71698113207547	29.71698113207547	11	22	m	29.71698113207547	60	106
Frame#	Time	Hip			RHip			RKnee			RAnkle			RBigToe			RSmallToe			RHeel			LHip			LKnee			LAnkle			LBigToe			LSmallToe			LHeel			Neck			Head			Nose			RShoulder			RElbow			RWrist			LShoulder			LElbow			LWrist		
		X1	Y1	Z1	X2	Y2	Z2	X3	Y3	Z3	X4	Y4	Z4	X5	Y5	Z5	X6	Y6	Z6	X7	Y7	Z7	X8	Y8	Z8	X9	Y9	Z9	X10	Y10	Z10	X11	Y11	Z11	X12	Y12	Z12	X13	Y13	Z13	X14	Y14	Z14	X15	Y15	Z15	X16	Y16	Z16	X17	Y17	Z17	X18	Y18	Z18	X19	Y19	Z19	X20	Y20	Z20	X21	Y21	Z21	X22	Y22	Z22
60	2.019047619047619	0.714669301129493	-1.0076264105532904	0.0	0.5166462912599715	-1.0034276143897516	0.0	0.553693566440546	-0.962594957114853	0.0	1.5437151246526848	-1.0645827688552387	0.0	1.157537109375	-0.19354101562500006	0.0	1.1474882812499998	-0.213638671875	0.0			0.0	0.8895522361617728	-1.0192387639416496	0.0	1.414876886201176	-0.997146439593536	0.0	0.6780490436090577	-1.0650166936858938	0.0			0.0	1.4646240234375	-0.6392470703125	0.0			0.0	1.051722056580595	-0.08160590050529305	0.0	1.3463672168126417	-0.036087841409043045	0.0	1.3328458578345581	0.034273278058409976	0.0	0.7861200625302714	-0.057048981521989145	0.0	0.34492521068018145	-0.2233930903541875	0.0	0.03869161139465938	-0.18693006916568736	0.0	1.1853370051417282	-0.282585983104471	0.0	1.122666616188151	-0.7573588860276645	0.0	1.1434612937599549	-0.8849362796527253	0.0
61	2.0526984126984122	0.6983721652552631	-0.9508491727951809	0.0	0.5214533846880279	-0.946995270272265	0.0	0.6835832110208261	-0.9477119239449509	0.0	1.5437289676401407	-1.0645739773010616	0.0	1.157537109375	-0.19354101562500006	0.0	1.1474882812499998	-0.213638671875	0.0			0.0	0.8343518909355273	-0.9688700953762285	0.0	1.313596741846136	-1.0027065154032837	0.0	0.6794977522148822	-1.0653103734943743	0.0			0.0	1.4646240234375	-0.6392470703125	0.0			0.0	0.9879140760875844	-0.08198212271042711	0.0	1.3463671886268975	-0.03608786869499077	0.0	1.3328458001094312	0.03427336606550599	0.0	0.7457153952158149	-0.04617475738757988	0.0	0.3201087306455873	-0.20513531568049986	0.0	0.03664341252890693	-0.19754839836309887	0.0	1.1278994382290213	-0.2526770921968527	0.0	1.0985934490564317	-0.7323791846604087	0.0	1.1434611464131579	-0.8849360294216765	0.0
62	2.086349206349206	0.6750685979025317	-0.8698591958540048	0.0	0.529048945765378	-0.8663405859110582	0.0	0.868795166476092	-0.9251221610782022	0.0	1.5437564615980497	-1.0645534761473947	0.0	1.157537109375	-0.19354101562500006	0.0	1.1474882812499998	-0.213638671875	0.0			0.0	0.7547330975060041	-0.897663995661351	0.0	1.1689955251372977	-1.010607322496832	0.0	0.6823946180210501	-1.06585850925108	0.0			0.0	1.4646240234375	-0.6392470703125	0.0			0.0	0.8957621506209366	-0.08238617253960588	0.0	1.3463671766877165	-0.03608788587585271	0.0	1.332845750111961	0.034273421669509294	0.0	0.6874128251843785	-0.030652869480516483	0.0	0.2848936737846559	-0.17953644990635403	0.0	0.03353999778910676	-0.2136483116747761	0.0	1.0442187999037065	-0.21004810184745856	0.0	1.0545079649536206	-0.6870449594589642	0.0	1.1434610560589984	-0.8849358237734624	0.0
63	2.1199999999999997	0.6486843823635535	-0.7784880846154184	0.0	0.5387196240116859	-0.7751132459994298	0.0	1.0776962678364643	-0.8975738247927425	0.0	1.543799053657898	-1.0645180090735968	0.0	1.157537109375	-0.19354101562500006	0.0	1.1474882812499998	-0.213638671875	0.0			0.0	0.663615538307782	-0.8183018876897935	0.0	1.0056312950257198	-1.0194924473184863	0.0	0.6869061134650817	-1.0666647771427595	0.0			0.0	1.4646240234375	-0.6392470703125	0.0			0.0	0.790052157072371	-0.08265073527356345	0.0	1.3463671746765857	-0.036087894249560104	0.0	1.3328457167948522	0.03427344889433106	0.0	0.6205752334898671	-0.013127165637930927	0.0	0.24540130884463454	-0.15132384721252254	0.0	0.02974133095960872	-0.23325909843590903	0.0	0.9471065534980854	-0.16201173890175005	0.0	0.9907588664540306	-0.6220342605603081	0.0	1.1434610035334105	-0.8849356846931989	0.0
64	2.1536507936507934	0.6251345312443263	-0.6976091289746387	0.0	0.5486201551657045	-0.694020958981949	0.0	1.2626480676461003	-0.8702769918761808	0.0	1.5438503808236805	-1.0644694699684705	0.0	1.157537109375	-0.19354101562500006	0.0	1.1474882812499998	-0.213638671875	0.0			0.0	0.5812666307174648	-0.7493801455784272	0.0	0.8605545379075725	-1.0273520126925375	0.0	0.6925344876301394	-1.067598541059477	0.0			0.0	1.4646240234375	-0.6392470703125	0.0			0.0	0.6940346209610582	-0.08268504871233612	0.0	1.3463671773064154	-0.036087896728257116	0.0	1.332845699353082	0.034273457058350096	0.0	0.5597813041495302	0.0023994702305864136	0.0	0.21068648532374645	-0.12723264653283192	0.0	0.025837090424998436	-0.25274499712413495	0.0	0.8573410675586048	-0.11962333585804005	0.0	0.9174027648693421	-0.5480613101465194	0.0	1.1434609454269629	-0.884935579460925	0.0
65	2.187301587301587	0.6082053934215146	-0.6410402271660424	0.0	0.5563892151162136	-0.6367843821372501	0.0	1.3918415268957545	-0.8475737411231433	0.0	1.5438893193596883	-1.064420991045267	0.0	1.157537109375	-0.19354101562500006	0.0	1.1474882812499998	-0.213638671875	0.0			0.0	0.5217714026314407	-0.7026651038950936	0.0	0.7583293387132867	-1.0328202962489907	0.0	0.6981377475226086	-1.0684100872351296	0.0			0.0	1.4646240234375	-0.6392470703125	0.0			0.0	0.6241883762626529	-0.08267037344069218	0.0	1.3463671811424573	-0.03608789610467968	0.0	1.3328456931708346	0.03427345515121475	0.0	0.5151536800145514	0.013286045012026007	0.0	0.1867694704511351	-0.11120668277116938	0.0	0.022197111743577063	-0.2692528194510669	0.0	0.7904700176319889	-0.09038548963789593	0.0	0.8499537370422005	-0.4812821244267942	0.0	1.1434608271764264	-0.8849354480656965	0.0
66	2.220952380952381	0.5978432731848898	-0.6095283055615511	0.0	0.5601107432729235	-0.6040704299804912	0.0	1.462599566399388	-0.8307281432870718	0.0	1.5438727952513525	-1.06440434537599	0.0	1.157537109375	-0.19354101562500006	0.0	1.1474882812499998	-0.213638671875	0.0			0.0	0.4867240272013093	-0.6780895416865942	0.0	0.7008062444712679	-1.0356900206437136	0.0	0.7025796616547266	-1.068872687672193	0.0			0.0	1.4646240234375	-0.6392470703125	0.0			0.0	0.5829120508702363	-0.0829037895396363	0.0	1.3463671844413805	-0.03608789436873275	0.0	1.3328456933046369	0.03427344960127613	0.0	0.48791729592761035	0.019489540941205325	0.0	0.1742180635992034	-0.10257777548635932	0.0	0.019031984681671874	-0.28194008798443837	0.0	0.7500109689901683	-0.07517531929803982	0.0	0.7988922932757939	-0.4323937198860258	0.0	1.1434605981241714	-0.8849352270566825	0.0
67	2.2546031746031745	0.5919254982783223	-0.5962987313188423	0.0	0.5593103086926552	-0.5890971736564377	0.0	1.4896196328284041	-0.8185754177507215	0.0	1.5437327151985518	-1.0644756950216878	0.0	1.157537109375	-0.19354101562500006	0.0	1.1474882812499998	-0.213638671875	0.0			0.0	0.47021958794338636	-0.6692143527597214	0.0	0.6768917148398904	-1.0364521603093515	0.0	0.7053774218908809	-1.0689158008080146	0.0			0.0	1.4646240234375	-0.6392470703125	0.0			0.0	0.563404322714275	-0.08335102937294434	0.0	1.3463671866284612	-0.036087892641993004	0.0	1.332845696009612	0.034273444045073015	0.0	0.47367270137069967	0.02248777168321412	0.0	0.17009787129792883	-0.0984461194753424	0.0	0.01677530043544969	-0.29112577120137584	0.0	0.730709145338818	-0.07093400407537269	0.0	0.7656005886815965	-0.40278286577157696	0.0	1.1434602368404259	-0.8849348783118078	0.0
68	2.2882539682539678	0.5882621375208933	-0.5938056038667072	0.0	0.5551144559625456	-0.5844695893782931	0.0	1.490882580166544	-0.8091394385059333	0.0	1.543384885486961	-1.0647135742441178	0.0	1.157537109375	-0.19354101562500006	0.0	1.1474882812499998	-0.213638671875	0.0			0.0	0.4652844104201876	-0.6693401418520161	0.0	0.6734844103741368	-1.0357052911720865	0.0	0.7067153556253665	-1.0686175432147509	0.0			0.0	1.4646240234375	-0.6392470703125	0.0			0.0	0.5569222877220924	-0.08363125057846708	0.0	1.3463671877664511	-0.036087891384964814	0.0	1.332845699046112	0.03427343998546472	0.0	0.4669655145333719	0.023739765851359697	0.0	0.17053505431815058	-0.09644205967435916	0.0	0.01594915522743071	-0.2973880402652266	0.0	0.7243773204716125	-0.07388276358918028	0.0	0.7465677694004857	-0.38918229925948994	0.0	1.1434597934096145	-0.8849344313775157	0.0
69	2.3219047619047615	0.5852845331486702	-0.5963080173666959	0.0	0.5491087907829065	-0.5847425537955493	0.0	1.48085958096702	-0.8006743602304809	0.0	1.5427611414730347	-1.0651993806664377	0.0	1.157537109375	-0.19354101562500006	0.0	1.1474882812499998	-0.213638671875	0.0			0.0	0.4665504177286798	-0.6735013278522161	0.0	0.6799962348221332	-1.0339496842611546	0.0	0.7070661116284315	-1.068112914863282	0.0			0.0	1.4646240234375	-0.6392470703125	0.0			0.0	0.5567246645987086	-0.08352629289701742	0.0	1.3463671881643209	-0.03608789066100703	0.0	1.332845701400154	0.03427343763902111	0.0	0.4636668409756136	0.02412475387689574	0.0	0.17251303496257783	-0.0954057269910428	0.0	0.01680880079728234	-0.30115153318017984	0.0	0.7241089875933667	-0.08079260125855735	0.0	0.737407588722866	-0.3872963440232353	0.0	1.1434594487313277	-0.8849340423694105	0.0
70	2.355555555555555	0.5821429873245237	-0.5998951299713714	0.0	0.542338822190375	-0.5864367946127172	0.0	1.468722154861607	-0.792224185476782	0.0	1.5418767031942424	-1.0659682440810996	0.0	1.157537109375	-0.19354101562500006	0.0	1.1474882812499998	-0.213638671875	0.0			0.0	0.47063906746830264	-0.6781675831494519	0.0	0.689548121440028	-1.031761102419764	0.0	0.7068879655394631	-1.0675209338671603	0.0			0.0	1.4646240234375	-0.6392470703125	0.0			0.0	0.5586887060951718	-0.08313905529732639	0.0	1.3463671881493142	-0.03608789035244065	0.0	1.3328457028373062	0.03427343663289461	0.0	0.46153962674313975	0.024332783622841594	0.0	0.17452512208690915	-0.09460455309864778	0.0	0.01928127152070659	-0.3024782812876652	0.0	0.7257237268278893	-0.08894180061757755	0.0	0.7340354620624562	-0.39218614030602067	0.0	1.1434595767735367	-0.8849340590288656	0.0
